<mxfile host="app.diagrams.net" modified="2023-03-08T09:16:48.600Z" agent="5.0 (Macintosh; Intel Mac OS X 10_15_7) AppleWebKit/537.36 (KHTML, like Gecko) Chrome/110.0.0.0 Safari/537.36" etag="SRLyemmYujwFwAN2eVxV" version="21.0.2" type="github">
  <diagram name="第 1 页" id="_K91ypXx1xtMTcxrtXod">
    <mxGraphModel dx="1194" dy="740" grid="1" gridSize="10" guides="1" tooltips="1" connect="1" arrows="1" fold="1" page="1" pageScale="1" pageWidth="827" pageHeight="1169" math="0" shadow="0">
      <root>
        <mxCell id="0" />
        <mxCell id="1" parent="0" />
        <mxCell id="5ChTUhYf3vF_o7wwU2jR-8" style="rounded=0;orthogonalLoop=1;jettySize=auto;html=1;sketch=1;curveFitting=1;jiggle=2;exitX=0.5;exitY=1;exitDx=0;exitDy=0;" edge="1" parent="1" source="5ChTUhYf3vF_o7wwU2jR-1" target="5ChTUhYf3vF_o7wwU2jR-3">
          <mxGeometry relative="1" as="geometry" />
        </mxCell>
        <mxCell id="5ChTUhYf3vF_o7wwU2jR-1" value="&lt;font face=&quot;Comic Sans MS&quot; style=&quot;font-size: 20px;&quot;&gt;service&lt;/font&gt;" style="rounded=0;whiteSpace=wrap;html=1;sketch=1;curveFitting=1;jiggle=2;fillColor=#d5e8d4;strokeColor=#82b366;" vertex="1" parent="1">
          <mxGeometry x="240" y="220" width="130" height="40" as="geometry" />
        </mxCell>
        <mxCell id="5ChTUhYf3vF_o7wwU2jR-2" value="&lt;span style=&quot;font-size: 20px;&quot;&gt;vector.csv&lt;/span&gt;" style="rounded=0;whiteSpace=wrap;html=1;sketch=1;curveFitting=1;jiggle=2;fillColor=#dae8fc;strokeColor=#6c8ebf;fontFamily=Comic Sans MS;" vertex="1" parent="1">
          <mxGeometry x="170" y="330" width="130" height="40" as="geometry" />
        </mxCell>
        <mxCell id="5ChTUhYf3vF_o7wwU2jR-9" style="rounded=0;orthogonalLoop=1;jettySize=auto;html=1;exitX=1;exitY=0.25;exitDx=0;exitDy=0;entryX=0.5;entryY=1;entryDx=0;entryDy=0;sketch=1;curveFitting=1;jiggle=2;" edge="1" parent="1" source="5ChTUhYf3vF_o7wwU2jR-3" target="5ChTUhYf3vF_o7wwU2jR-4">
          <mxGeometry relative="1" as="geometry" />
        </mxCell>
        <mxCell id="5ChTUhYf3vF_o7wwU2jR-3" value="&lt;font face=&quot;Comic Sans MS&quot; style=&quot;font-size: 20px;&quot;&gt;index.dat&lt;/font&gt;" style="rounded=0;whiteSpace=wrap;html=1;sketch=1;curveFitting=1;jiggle=2;fillColor=#f8cecc;strokeColor=#b85450;" vertex="1" parent="1">
          <mxGeometry x="300" y="330" width="130" height="40" as="geometry" />
        </mxCell>
        <mxCell id="5ChTUhYf3vF_o7wwU2jR-4" value="&lt;font face=&quot;Comic Sans MS&quot; style=&quot;font-size: 20px;&quot;&gt;index service&lt;/font&gt;" style="rounded=0;whiteSpace=wrap;html=1;sketch=1;curveFitting=1;jiggle=2;fillColor=#ffe6cc;strokeColor=#d79b00;" vertex="1" parent="1">
          <mxGeometry x="530" y="220" width="130" height="40" as="geometry" />
        </mxCell>
        <mxCell id="5ChTUhYf3vF_o7wwU2jR-7" value="" style="endArrow=classic;html=1;rounded=0;entryX=0.5;entryY=1;entryDx=0;entryDy=0;sketch=1;curveFitting=1;jiggle=2;" edge="1" parent="1" target="5ChTUhYf3vF_o7wwU2jR-1">
          <mxGeometry width="50" height="50" relative="1" as="geometry">
            <mxPoint x="240" y="330" as="sourcePoint" />
            <mxPoint x="300" y="270" as="targetPoint" />
          </mxGeometry>
        </mxCell>
        <mxCell id="5ChTUhYf3vF_o7wwU2jR-10" value="" style="endArrow=classic;html=1;rounded=0;sketch=1;curveFitting=1;jiggle=2;" edge="1" parent="1" target="5ChTUhYf3vF_o7wwU2jR-4">
          <mxGeometry width="50" height="50" relative="1" as="geometry">
            <mxPoint x="595" y="130" as="sourcePoint" />
            <mxPoint x="640" y="90" as="targetPoint" />
          </mxGeometry>
        </mxCell>
        <mxCell id="5ChTUhYf3vF_o7wwU2jR-11" value="&lt;font face=&quot;Comic Sans MS&quot;&gt;1.加载向量&lt;/font&gt;" style="text;html=1;strokeColor=none;fillColor=none;align=center;verticalAlign=middle;whiteSpace=wrap;rounded=0;" vertex="1" parent="1">
          <mxGeometry x="195" y="280" width="80" height="30" as="geometry" />
        </mxCell>
        <mxCell id="5ChTUhYf3vF_o7wwU2jR-12" value="&lt;font face=&quot;Comic Sans MS&quot;&gt;2.构建索引&lt;/font&gt;" style="text;html=1;strokeColor=none;fillColor=none;align=center;verticalAlign=middle;whiteSpace=wrap;rounded=0;" vertex="1" parent="1">
          <mxGeometry x="325" y="280" width="80" height="30" as="geometry" />
        </mxCell>
        <mxCell id="5ChTUhYf3vF_o7wwU2jR-15" value="&lt;font face=&quot;Comic Sans MS&quot;&gt;3.分发索引文件并加载&lt;/font&gt;" style="text;html=1;strokeColor=none;fillColor=none;align=center;verticalAlign=middle;whiteSpace=wrap;rounded=0;" vertex="1" parent="1">
          <mxGeometry x="500" y="310" width="130" height="40" as="geometry" />
        </mxCell>
        <mxCell id="5ChTUhYf3vF_o7wwU2jR-16" value="&lt;font face=&quot;Comic Sans MS&quot;&gt;4.对外提供检索服务&lt;/font&gt;" style="text;html=1;strokeColor=none;fillColor=none;align=center;verticalAlign=middle;whiteSpace=wrap;rounded=0;" vertex="1" parent="1">
          <mxGeometry x="610" y="160" width="130" height="50" as="geometry" />
        </mxCell>
      </root>
    </mxGraphModel>
  </diagram>
</mxfile>
